<svg width="514" height="514" viewBox="0 0 514 514" fill="none" xmlns="http://www.w3.org/2000/svg">
<g clip-path="url(#clip0_846_330)">
<rect x="17" y="17" width="480" height="480" rx="90" fill="#A04444"/>
<g filter="url(#filter0_d_846_330)">
<path d="M100.71 172C93.5867 172 87.2391 170.554 81.6674 167.662C76.1662 164.77 71.8287 160.678 68.6549 155.387C65.5516 150.097 64 143.819 64 136.553C64 129.217 65.5516 122.903 68.6549 117.613C71.8287 112.322 76.1662 108.231 81.6674 105.338C87.2391 102.446 93.5867 101 100.71 101C107.904 101 114.251 102.446 119.753 105.338C125.254 108.231 129.591 112.322 132.765 117.613C135.939 122.903 137.526 129.217 137.526 136.553C137.526 143.819 135.939 150.097 132.765 155.387C129.591 160.678 125.254 164.77 119.753 167.662C114.251 170.554 107.904 172 100.71 172ZM100.71 162.794C105.788 162.794 110.302 161.807 114.251 159.832C118.201 157.856 121.34 154.929 123.667 151.049C125.994 147.169 127.158 142.337 127.158 136.553C127.158 130.769 125.994 125.936 123.667 122.057C121.34 118.177 118.201 115.249 114.251 113.274C110.302 111.229 105.788 110.206 100.71 110.206C95.7731 110.206 91.2945 111.229 87.2744 113.274C83.2543 115.249 80.0805 118.177 77.753 122.057C75.4256 125.936 74.2619 130.769 74.2619 136.553C74.2619 142.337 75.4256 147.169 77.753 151.049C80.0805 154.929 83.2543 157.856 87.2744 159.832C91.2945 161.807 95.7731 162.794 100.71 162.794Z" fill="#E2E8F0"/>
<path d="M167.536 170.836L141.511 102.164H152.619L174.836 162.159H171.662L192.926 102.164H204.246L225.511 162.159H222.443L244.659 102.164H255.45L229.742 170.836H218.211L197.158 109.782H200.12L178.962 170.836H167.536Z" fill="#E2E8F0"/>
<path d="M267.9 153.8V144.7H304.716V153.8H267.9ZM252.984 170.836L281.019 102.164H291.81L320.056 170.836H309.054L284.51 108.83H288.318L263.88 170.836H252.984Z" fill="#E2E8F0"/>
<path d="M325.446 148.298H335.179C335.39 151.049 336.307 153.553 337.929 155.811C339.622 157.998 341.879 159.726 344.7 160.996C347.592 162.265 350.942 162.9 354.75 162.9C358.065 162.9 360.816 162.442 363.002 161.525C365.189 160.608 366.811 159.373 367.869 157.821C368.997 156.199 369.561 154.294 369.561 152.107C369.561 149.921 368.962 148.192 367.763 146.923C366.564 145.582 364.765 144.489 362.367 143.642C359.969 142.725 357.007 141.844 353.481 140.997C350.378 140.221 347.31 139.304 344.277 138.246C341.315 137.117 338.564 135.742 336.025 134.119C333.557 132.497 331.547 130.557 329.995 128.3C328.514 125.972 327.773 123.185 327.773 119.94C327.773 116.484 328.725 113.345 330.63 110.523C332.534 107.631 335.32 105.338 338.987 103.645C342.725 101.882 347.239 101 352.529 101C360.71 101 366.881 103.046 371.042 107.137C375.274 111.229 377.319 116.695 377.178 123.538H367.657C367.445 118.741 365.929 115.32 363.108 113.274C360.287 111.158 356.619 110.1 352.106 110.1C348.226 110.1 344.912 110.911 342.161 112.534C339.41 114.085 338.035 116.554 338.035 119.94C338.035 121.422 338.353 122.727 338.987 123.855C339.622 124.914 340.68 125.901 342.161 126.818C343.642 127.735 345.617 128.617 348.085 129.463C350.624 130.31 353.763 131.227 357.501 132.215C360.322 132.849 363.037 133.661 365.647 134.648C368.327 135.636 370.725 136.87 372.841 138.352C374.957 139.833 376.614 141.738 377.813 144.066C379.083 146.393 379.717 149.25 379.717 152.636C379.717 156.234 378.836 159.514 377.073 162.477C375.309 165.369 372.559 167.697 368.821 169.461C365.153 171.154 360.393 172 354.539 172C349.884 172 345.828 171.4 342.373 170.201C338.987 169.002 336.131 167.45 333.803 165.545C331.547 163.641 329.748 161.595 328.408 159.408C327.138 157.222 326.257 155.141 325.763 153.165C325.34 151.19 325.234 149.568 325.446 148.298Z" fill="#E2E8F0"/>
<path d="M400.547 147.134V138.246H425.197C429.287 138.246 432.567 137.011 435.035 134.542C437.574 132.074 438.844 128.829 438.844 124.808C438.844 120.646 437.574 117.366 435.035 114.967C432.567 112.569 429.287 111.37 425.197 111.37H402.24V170.836H392.084V102.164H424.773C428.159 102.164 431.297 102.658 434.189 103.645C437.151 104.562 439.726 105.973 441.912 107.878C444.169 109.782 445.897 112.146 447.096 114.967C448.365 117.789 449 121.069 449 124.808C449 128.476 448.365 131.721 447.096 134.542C445.897 137.364 444.169 139.727 441.912 141.632C439.726 143.466 437.151 144.842 434.189 145.759C431.297 146.676 428.159 147.134 424.773 147.134H400.547Z" fill="#E2E8F0"/>
</g>
<rect x="17" y="220" width="497" height="311" fill="#D9D9D9"/>
<g filter="url(#filter1_i_846_330)">
<path d="M68.08 292.76H75.44C75.6 294.84 76.2933 296.733 77.52 298.44C78.8 300.093 80.5067 301.4 82.64 302.36C84.8267 303.32 87.36 303.8 90.24 303.8C92.7467 303.8 94.8267 303.453 96.48 302.76C98.1333 302.067 99.36 301.133 100.16 299.96C101.013 298.733 101.44 297.293 101.44 295.64C101.44 293.987 100.987 292.68 100.08 291.72C99.1733 290.707 97.8133 289.88 96 289.24C94.1867 288.547 91.9467 287.88 89.28 287.24C86.9333 286.653 84.6133 285.96 82.32 285.16C80.08 284.307 78 283.267 76.08 282.04C74.2133 280.813 72.6933 279.347 71.52 277.64C70.4 275.88 69.84 273.773 69.84 271.32C69.84 268.707 70.56 266.333 72 264.2C73.44 262.013 75.5467 260.28 78.32 259C81.1467 257.667 84.56 257 88.56 257C94.7467 257 99.4133 258.547 102.56 261.64C105.76 264.733 107.307 268.867 107.2 274.04H100C99.84 270.413 98.6933 267.827 96.56 266.28C94.4267 264.68 91.6533 263.88 88.24 263.88C85.3067 263.88 82.8 264.493 80.72 265.72C78.64 266.893 77.6 268.76 77.6 271.32C77.6 272.44 77.84 273.427 78.32 274.28C78.8 275.08 79.6 275.827 80.72 276.52C81.84 277.213 83.3333 277.88 85.2 278.52C87.12 279.16 89.4933 279.853 92.32 280.6C94.4533 281.08 96.5067 281.693 98.48 282.44C100.507 283.187 102.32 284.12 103.92 285.24C105.52 286.36 106.773 287.8 107.68 289.56C108.64 291.32 109.12 293.48 109.12 296.04C109.12 298.76 108.453 301.24 107.12 303.48C105.787 305.667 103.707 307.427 100.88 308.76C98.1067 310.04 94.5067 310.68 90.08 310.68C86.56 310.68 83.4933 310.227 80.88 309.32C78.32 308.413 76.16 307.24 74.4 305.8C72.6933 304.36 71.3333 302.813 70.32 301.16C69.36 299.507 68.6933 297.933 68.32 296.44C68 294.947 67.92 293.72 68.08 292.76Z" fill="#A04444"/>
<path d="M126.311 287.32V302.92H159.751V309.8H118.631V257.88H159.671V264.76H126.311V280.6H153.591V287.32H126.311Z" fill="#A04444"/>
<path d="M220.261 292.04C219.781 295.933 218.447 299.267 216.261 302.04C214.127 304.813 211.327 306.947 207.861 308.44C204.394 309.933 200.447 310.68 196.021 310.68C192.021 310.68 188.341 310.067 184.981 308.84C181.674 307.613 178.794 305.853 176.341 303.56C173.887 301.267 171.967 298.467 170.581 295.16C169.194 291.8 168.501 288.04 168.501 283.88C168.501 279.667 169.194 275.907 170.581 272.6C171.967 269.293 173.887 266.493 176.341 264.2C178.794 261.853 181.674 260.067 184.981 258.84C188.341 257.613 192.021 257 196.021 257C200.501 257 204.474 257.773 207.941 259.32C211.407 260.813 214.207 262.973 216.341 265.8C218.527 268.573 219.861 271.907 220.341 275.8H212.981C212.287 273.293 211.141 271.16 209.541 269.4C207.941 267.64 205.994 266.307 203.701 265.4C201.407 264.44 198.847 263.96 196.021 263.96C192.394 263.96 189.087 264.733 186.101 266.28C183.114 267.827 180.714 270.067 178.901 273C177.141 275.933 176.261 279.56 176.261 283.88C176.261 288.147 177.141 291.773 178.901 294.76C180.714 297.693 183.114 299.933 186.101 301.48C189.087 302.973 192.394 303.72 196.021 303.72C198.847 303.72 201.381 303.267 203.621 302.36C205.914 301.453 207.861 300.12 209.461 298.36C211.061 296.6 212.234 294.493 212.981 292.04H220.261Z" fill="#A04444"/>
<path d="M270.581 288.92V257.88H278.261V289.24C278.261 292.333 277.861 295.053 277.061 297.4C276.314 299.747 275.221 301.773 273.781 303.48C272.341 305.187 270.634 306.573 268.661 307.64C266.741 308.653 264.581 309.4 262.181 309.88C259.834 310.413 257.327 310.68 254.661 310.68C251.887 310.68 249.301 310.413 246.901 309.88C244.501 309.4 242.287 308.653 240.261 307.64C238.287 306.573 236.581 305.187 235.141 303.48C233.754 301.773 232.661 299.747 231.861 297.4C231.114 295.053 230.741 292.333 230.741 289.24V257.88H238.421V288.92C238.421 292.92 239.141 295.987 240.581 298.12C242.074 300.253 244.047 301.72 246.501 302.52C248.954 303.32 251.674 303.72 254.661 303.72C257.541 303.72 260.181 303.32 262.581 302.52C264.981 301.72 266.901 300.253 268.341 298.12C269.834 295.987 270.581 292.92 270.581 288.92Z" fill="#A04444"/>
<path d="M290.897 309.8V257.88H317.617C321.35 257.88 324.55 258.44 327.217 259.56C329.937 260.627 332.017 262.28 333.457 264.52C334.897 266.707 335.617 269.507 335.617 272.92C335.617 275.267 335.217 277.267 334.417 278.92C333.67 280.52 332.63 281.853 331.297 282.92C329.964 283.987 328.39 284.813 326.577 285.4C324.764 285.987 322.817 286.36 320.737 286.52L320.177 286.04C323.324 286.147 325.964 286.493 328.097 287.08C330.23 287.667 331.857 288.733 332.977 290.28C334.15 291.773 334.737 294.013 334.737 297V309.8H326.977V297.24C326.977 295.16 326.63 293.533 325.937 292.36C325.244 291.187 324.044 290.36 322.337 289.88C320.63 289.4 318.23 289.16 315.137 289.16H298.577V309.8H290.897ZM298.577 282.44H317.617C321.03 282.44 323.59 281.587 325.297 279.88C327.057 278.173 327.937 275.933 327.937 273.16C327.937 270.493 327.057 268.44 325.297 267C323.59 265.56 321.03 264.84 317.617 264.84H298.577V282.44Z" fill="#A04444"/>
<path d="M348.434 257.88H356.114V309.8H348.434V257.88Z" fill="#A04444"/>
<path d="M365.39 257.88H410.91V264.76H365.39V257.88ZM384.27 263.96H392.03V309.8H384.27V263.96Z" fill="#A04444"/>
<path d="M462.054 257.88L442.294 292.44V309.8H434.614V292.44L414.854 257.88H423.654L440.454 288.2H436.774L453.254 257.88H462.054Z" fill="#A04444"/>
</g>
<g filter="url(#filter2_i_846_330)">
<path d="M68 426.426V333.574H115.71C122.376 333.574 128.09 334.575 132.852 336.578C137.708 338.486 141.422 341.443 143.993 345.449C146.565 349.359 147.85 354.367 147.85 360.471C147.85 364.668 147.136 368.244 145.708 371.201C144.374 374.063 142.517 376.447 140.137 378.355C137.756 380.262 134.947 381.741 131.709 382.79C128.471 383.839 124.995 384.507 121.281 384.793L120.281 383.934C125.9 384.125 130.614 384.745 134.423 385.794C138.232 386.844 141.137 388.751 143.136 391.517C145.231 394.188 146.279 398.194 146.279 403.535V426.426H132.423V403.964C132.423 400.244 131.804 397.335 130.566 395.237C129.328 393.139 127.185 391.66 124.138 390.802C121.091 389.943 116.805 389.514 111.282 389.514H81.7131V426.426H68ZM81.7131 377.496H115.71C121.805 377.496 126.376 375.97 129.423 372.918C132.566 369.866 134.137 365.86 134.137 360.9C134.137 356.131 132.566 352.459 129.423 349.884C126.376 347.308 121.805 346.021 115.71 346.021H81.7131V377.496Z" fill="#A04444"/>
<path d="M170.737 333.574H184.45V426.426H170.737V333.574Z" fill="#A04444"/>
<path d="M203.583 395.952H216.725C217.011 399.672 218.249 403.058 220.439 406.11C222.724 409.067 225.772 411.404 229.581 413.121C233.485 414.838 238.009 415.696 243.151 415.696C247.627 415.696 251.341 415.076 254.293 413.836C257.245 412.596 259.435 410.927 260.864 408.829C262.388 406.635 263.149 404.06 263.149 401.103C263.149 398.146 262.34 395.809 260.721 394.092C259.102 392.28 256.674 390.802 253.436 389.657C250.198 388.417 246.199 387.225 241.437 386.08C237.247 385.031 233.104 383.791 229.01 382.361C225.01 380.835 221.296 378.975 217.868 376.781C214.535 374.587 211.821 371.964 209.725 368.912C207.726 365.765 206.726 361.997 206.726 357.61C206.726 352.936 208.011 348.692 210.583 344.876C213.154 340.966 216.915 337.866 221.867 335.577C226.914 333.192 233.009 332 240.151 332C251.198 332 259.531 334.766 265.149 340.298C270.863 345.83 273.625 353.222 273.434 362.474H260.578C260.293 355.988 258.245 351.362 254.436 348.596C250.627 345.735 245.675 344.304 239.58 344.304C234.342 344.304 229.867 345.401 226.153 347.595C222.439 349.693 220.582 353.031 220.582 357.61C220.582 359.613 221.01 361.377 221.867 362.903C222.724 364.334 224.153 365.669 226.153 366.909C228.152 368.149 230.819 369.341 234.152 370.486C237.58 371.63 241.818 372.87 246.865 374.206C250.674 375.064 254.341 376.161 257.864 377.496C261.483 378.832 264.721 380.501 267.578 382.504C270.434 384.507 272.672 387.082 274.291 390.23C276.005 393.377 276.863 397.24 276.863 401.818C276.863 406.683 275.672 411.118 273.291 415.124C270.911 419.034 267.197 422.182 262.149 424.566C257.198 426.855 250.77 428 242.865 428C236.58 428 231.105 427.189 226.438 425.568C221.867 423.946 218.01 421.848 214.868 419.273C211.821 416.697 209.392 413.931 207.583 410.975C205.869 408.018 204.678 405.204 204.012 402.534C203.44 399.863 203.297 397.669 203.583 395.952Z" fill="#A04444"/>
<path d="M321.414 381.216L321.272 373.633L377.695 426.426H358.411L307.559 377.782L352.555 333.574H371.553L321.414 381.216ZM293.845 333.574H307.559V426.426H293.845V333.574Z" fill="#A04444"/>
<path d="M381.721 395.952H394.862C395.148 399.672 396.386 403.058 398.576 406.11C400.862 409.067 403.909 411.404 407.718 413.121C411.623 414.838 416.146 415.696 421.289 415.696C425.764 415.696 429.478 415.076 432.431 413.836C435.383 412.596 437.573 410.927 439.001 408.829C440.525 406.635 441.287 404.06 441.287 401.103C441.287 398.146 440.477 395.809 438.859 394.092C437.24 392.28 434.811 390.802 431.573 389.657C428.336 388.417 424.336 387.225 419.574 386.08C415.384 385.031 411.242 383.791 407.147 382.361C403.147 380.835 399.433 378.975 396.005 376.781C392.672 374.587 389.958 371.964 387.863 368.912C385.863 365.765 384.863 361.997 384.863 357.61C384.863 352.936 386.149 348.692 388.72 344.876C391.291 340.966 395.053 337.866 400.005 335.577C405.052 333.192 411.147 332 418.289 332C429.336 332 437.668 334.766 443.287 340.298C449.001 345.83 451.762 353.222 451.572 362.474H438.716C438.43 355.988 436.383 351.362 432.573 348.596C428.764 345.735 423.812 344.304 417.717 344.304C412.48 344.304 408.004 345.401 404.29 347.595C400.576 349.693 398.719 353.031 398.719 357.61C398.719 359.613 399.148 361.377 400.005 362.903C400.862 364.334 402.29 365.669 404.29 366.909C406.29 368.149 408.956 369.341 412.289 370.486C415.718 371.63 419.955 372.87 425.003 374.206C428.812 375.064 432.478 376.161 436.002 377.496C439.62 378.832 442.858 380.501 445.715 382.504C448.572 384.507 450.81 387.082 452.429 390.23C454.143 393.377 455 397.24 455 401.818C455 406.683 453.81 411.118 451.429 415.124C449.048 419.034 445.334 422.182 440.287 424.566C435.335 426.855 428.907 428 421.003 428C414.718 428 409.242 427.189 404.576 425.568C400.005 423.946 396.148 421.848 393.005 419.273C389.958 416.697 387.53 413.931 385.72 410.975C384.006 408.018 382.816 405.204 382.149 402.534C381.578 399.863 381.435 397.669 381.721 395.952Z" fill="#A04444"/>
</g>
</g>
<defs>
<filter id="filter0_d_846_330" x="60" y="101" width="393" height="79" filterUnits="userSpaceOnUse" color-interpolation-filters="sRGB">
<feFlood flood-opacity="0" result="BackgroundImageFix"/>
<feColorMatrix in="SourceAlpha" type="matrix" values="0 0 0 0 0 0 0 0 0 0 0 0 0 0 0 0 0 0 127 0" result="hardAlpha"/>
<feOffset dy="4"/>
<feGaussianBlur stdDeviation="2"/>
<feComposite in2="hardAlpha" operator="out"/>
<feColorMatrix type="matrix" values="0 0 0 0 0 0 0 0 0 0 0 0 0 0 0 0 0 0 0.25 0"/>
<feBlend mode="normal" in2="BackgroundImageFix" result="effect1_dropShadow_846_330"/>
<feBlend mode="normal" in="SourceGraphic" in2="effect1_dropShadow_846_330" result="shape"/>
</filter>
<filter id="filter1_i_846_330" x="68" y="257" width="394.055" height="57.6797" filterUnits="userSpaceOnUse" color-interpolation-filters="sRGB">
<feFlood flood-opacity="0" result="BackgroundImageFix"/>
<feBlend mode="normal" in="SourceGraphic" in2="BackgroundImageFix" result="shape"/>
<feColorMatrix in="SourceAlpha" type="matrix" values="0 0 0 0 0 0 0 0 0 0 0 0 0 0 0 0 0 0 127 0" result="hardAlpha"/>
<feOffset dy="4"/>
<feGaussianBlur stdDeviation="2"/>
<feComposite in2="hardAlpha" operator="arithmetic" k2="-1" k3="1"/>
<feColorMatrix type="matrix" values="0 0 0 0 0 0 0 0 0 0 0 0 0 0 0 0 0 0 0.25 0"/>
<feBlend mode="normal" in2="shape" result="effect1_innerShadow_846_330"/>
</filter>
<filter id="filter2_i_846_330" x="68" y="332" width="387" height="100" filterUnits="userSpaceOnUse" color-interpolation-filters="sRGB">
<feFlood flood-opacity="0" result="BackgroundImageFix"/>
<feBlend mode="normal" in="SourceGraphic" in2="BackgroundImageFix" result="shape"/>
<feColorMatrix in="SourceAlpha" type="matrix" values="0 0 0 0 0 0 0 0 0 0 0 0 0 0 0 0 0 0 127 0" result="hardAlpha"/>
<feOffset dy="4"/>
<feGaussianBlur stdDeviation="2"/>
<feComposite in2="hardAlpha" operator="arithmetic" k2="-1" k3="1"/>
<feColorMatrix type="matrix" values="0 0 0 0 0 0 0 0 0 0 0 0 0 0 0 0 0 0 0.25 0"/>
<feBlend mode="normal" in2="shape" result="effect1_innerShadow_846_330"/>
</filter>
<clipPath id="clip0_846_330">
<rect x="17" y="17" width="480" height="480" rx="90" fill="white"/>
</clipPath>
</defs>
</svg>
